<?xml version="1.0" encoding="UTF-8"?> <svg xmlns="http://www.w3.org/2000/svg" width="95" height="16" viewBox="0 0 95 16" fill="none"><g clip-path="url(#clip0_646_3352)"><path d="M2.96338 0.651123H5.77152L9.23082 11.0988L12.7657 0.651123H15.5041L18.0273 15.7151H15.289L13.632 6.20345L10.4634 15.7151H7.94012L4.76571 6.19763L3.10873 15.7093H0.370361L2.96338 0.651123Z" fill="#2A344C"></path><path d="M30.4227 13.5465C29.1959 15.2733 27.6843 15.9942 25.3064 15.9942C21.7773 15.9942 19.4692 13.4012 19.4692 10.157C19.4692 7.1279 21.632 4.31976 25.2366 4.31976C28.8413 4.31976 31.1436 6.84302 31.1436 10.3721V11.0233H22.2075C22.4982 12.6802 23.7192 13.6163 25.3064 13.6163C26.5331 13.6163 27.3238 13.2558 28.0448 12.5349L30.4227 13.5465ZM28.4052 8.72093C28.0448 7.42441 26.818 6.63372 25.3762 6.63372C23.9343 6.63372 22.9285 7.35465 22.3471 8.72093H28.3994H28.4052Z" fill="#2A344C"></path><path d="M41.5912 14.4826C40.5796 15.4186 39.5738 15.9244 38.1319 15.9244C35.3238 15.9244 32.8703 13.4768 32.8703 10.0872C32.8703 6.69769 35.1784 4.25001 38.1319 4.25001C39.504 4.25001 40.6552 4.75583 41.5912 5.76164V0.29071H44.3994V15.7151H41.5912V14.4884V14.4826ZM35.6843 10.0872C35.6843 11.9593 36.911 13.4012 38.7133 13.4012C40.5156 13.4012 41.7424 12.1047 41.7424 10.0872C41.7424 8.06978 40.4459 6.84304 38.7133 6.84304C36.9808 6.84304 35.6843 8.2849 35.6843 10.0872Z" fill="#2A344C"></path><path d="M50.097 1.80233C50.097 2.81395 49.3063 3.60465 48.2947 3.60465C47.2831 3.60465 46.568 2.73837 46.568 1.65698C46.5621 0.72093 47.3587 0 48.3645 0C49.3703 0 50.0912 0.866279 50.0912 1.80233H50.097ZM46.9284 4.5407H49.7366V15.7093H46.9284V4.5407Z" fill="#2A344C"></path><path d="M62.9982 13.6221C61.7715 15.1337 60.1145 15.9302 57.9517 15.9302C54.1319 15.9302 51.6843 13.3372 51.6843 10.093C51.6843 6.84883 54.2773 4.18604 57.9517 4.18604C60.1145 4.18604 61.9866 5.05231 63.068 6.70929L60.7598 8.0058C59.9691 7.13952 59.1726 6.77906 57.9517 6.77906C55.7889 6.77906 54.4924 8.22092 54.4924 10.1686C54.4924 12.1163 55.7889 13.4128 57.8819 13.4128C59.1087 13.4128 60.1145 12.9825 60.7657 12.1163L62.9982 13.6279V13.6221Z" fill="#2A344C"></path><path d="M72.4342 14.4826C71.4226 15.4186 70.4168 15.9244 68.9749 15.9244C66.1668 15.9244 63.7133 13.4767 63.7133 10.0872C63.7133 6.69767 66.0215 4.25 68.9749 4.25C70.347 4.25 71.4982 4.75581 72.4342 5.76163V4.53488H75.2424V15.7035H72.4342V14.4767V14.4826ZM66.4517 10.0872C66.4517 11.9593 67.6784 13.4012 69.4808 13.4012C71.2831 13.4012 72.5098 12.1047 72.5098 10.0872C72.5098 8.06977 71.2133 6.84302 69.4808 6.84302C67.7482 6.84302 66.4517 8.28488 66.4517 10.0872Z" fill="#2A344C"></path><path d="M80.8703 1.80233C80.8703 2.81395 80.0796 3.60465 79.068 3.60465C78.0563 3.60465 77.2656 2.73837 77.2656 1.65698C77.2656 0.72093 78.0563 0 79.068 0C80.0796 0 80.8703 0.866279 80.8703 1.80233ZM77.7017 4.5407H80.5098V15.7093H77.7017V4.5407Z" fill="#2A344C"></path><path d="M91.2482 14.4826C90.2366 15.4186 89.2308 15.9244 87.7889 15.9244C84.9808 15.9244 82.5273 13.4768 82.5273 10.0872C82.5273 6.69769 84.8354 4.25001 87.7889 4.25001C89.161 4.25001 90.3122 4.75583 91.2482 5.76164V0.29071H94.0563V15.7151H91.2482V14.4884V14.4826ZM85.3412 10.0872C85.3412 11.9593 86.568 13.4012 88.3703 13.4012C90.1726 13.4012 91.3994 12.1047 91.3994 10.0872C91.3994 8.06978 90.1029 6.84304 88.3703 6.84304C86.6377 6.84304 85.3412 8.2849 85.3412 10.0872Z" fill="#2A344C"></path></g><defs><clipPath id="clip0_646_3352"><rect width="93.686" height="16" fill="white" transform="translate(0.370361)"></rect></clipPath></defs></svg> 